<svg width="71" height="71" viewBox="0 0 71 71" fill="none" xmlns="http://www.w3.org/2000/svg">
<g clip-path="url(#clip0_204_217)">
<path d="M40.279 50.6539L54.1735 36.7593C55.017 35.9159 55.0466 34.821 54.1735 33.9479L40.2494 20.0829C39.4356 19.2691 38.2814 19.3283 37.586 20.0238C36.8905 20.7193 36.9201 21.9326 37.6007 22.6133L42.0103 27.0229L48.9946 33.4744L44.2595 33.4744L17.8021 33.504C17.2695 33.5041 16.7959 33.6816 16.4852 33.9923C15.7898 34.6878 15.7454 35.9751 16.4704 36.7002C16.8108 37.0405 17.2546 37.2181 17.7874 37.2181L44.2742 37.2181L49.32 37.2181L42.321 43.3737L37.6007 48.094C36.9201 48.7747 36.8905 49.988 37.6007 50.6983C38.2962 51.3937 39.4948 51.4381 40.279 50.6539Z" fill="#121212" stroke="white"/>
</g>
<defs>
<clipPath id="clip0_204_217">
<rect width="50" height="50" fill="white" transform="translate(35.3555) rotate(45)"/>
</clipPath>
</defs>
</svg>
