<svg width="87" height="68" viewBox="0 0 87 68" fill="none" xmlns="http://www.w3.org/2000/svg">
<path d="M36.8193 4.83972L33.6925 0.0322266C12.0588 14.5739 0.0400391 32.2424 0.0400391 46.7841C0.0400391 60.8451 10.3781 67.4564 19.1508 67.4564C30.208 67.4564 38.0192 58.0798 38.0192 48.2264C38.0192 39.9344 32.731 32.8424 25.639 30.1964C23.5968 29.4733 21.6738 28.8733 21.6738 25.3889C21.6738 20.9429 24.9198 14.3355 36.8193 4.83972ZM84.5327 4.83972L81.4059 0.0322266C60.0107 14.5739 47.7535 32.2424 47.7535 46.7841C47.7535 60.8451 58.33 67.4564 67.1027 67.4564C78.2791 67.4564 86.2134 58.0798 86.2134 48.2264C86.2134 39.9344 80.8059 32.8424 73.4716 30.1964C71.4294 29.4733 69.6256 28.8733 69.6256 25.3889C69.6256 20.9429 72.9909 14.3316 84.5289 4.83588L84.5327 4.83972Z" fill="#7FE85A"/>
</svg>
