<svg width="54" height="42" viewBox="0 0 54 42" fill="none" xmlns="http://www.w3.org/2000/svg">
<path d="M50.2079 1.13925L51.5828 3.2532C44.8318 8.88431 42.6945 12.9412 42.6945 15.835C42.6945 16.9848 42.9959 17.753 43.5514 18.2847C44.0505 18.7623 44.7108 18.9954 45.2855 19.1982C45.311 19.2072 45.3364 19.2162 45.3616 19.2251C49.6267 20.7645 52.7672 24.8896 52.7672 29.7028C52.7672 35.4369 48.147 40.88 41.6624 40.88C36.5669 40.88 30.4128 37.0467 30.4128 28.827C30.4128 24.549 32.2186 19.7592 35.6655 14.9224C39.0342 10.1955 43.9515 5.45159 50.2079 1.13925ZM1.43945 28.827C1.43945 20.3399 8.41322 9.87754 21.233 1.13706L22.6075 3.25031C15.6442 8.88539 13.5763 12.94 13.5763 15.835C13.5763 16.9942 13.9015 17.7632 14.4769 18.2917C14.9822 18.7558 15.6425 18.9881 16.209 19.1875C16.2441 19.1998 16.2789 19.2121 16.3132 19.2242C20.4269 20.7609 23.5019 24.8828 23.5019 29.7028C23.5019 35.4435 18.9502 40.88 12.5442 40.88C7.4566 40.88 1.43945 37.054 1.43945 28.827Z" stroke="#A8A8A8"/>
</svg>
