<svg width="106" height="106" viewBox="0 0 106 106" fill="none" xmlns="http://www.w3.org/2000/svg">
<circle cx="52.9902" cy="52.9902" r="52.9902" fill="#7FE85A"/>
<path d="M51.2212 35.754L49.3566 32.8872C36.4561 41.5587 29.2891 52.0947 29.2891 60.7662C29.2891 69.151 35.4538 73.0934 40.6852 73.0934C47.2788 73.0934 51.9368 67.502 51.9368 61.6263C51.9368 56.6816 48.7833 52.4525 44.5542 50.8746C43.3364 50.4435 42.1896 50.0857 42.1896 48.0078C42.1896 45.3566 44.1253 41.4165 51.2212 35.754ZM75.6916 35.754L73.827 32.8872C61.0686 41.5587 53.7594 52.0947 53.7594 60.7662C53.7594 69.151 60.0664 73.0934 65.2977 73.0934C71.9625 73.0934 76.6938 67.502 76.6938 61.6263C76.6938 56.6816 73.4692 52.4525 69.0957 50.8746C67.8778 50.4435 66.8022 50.0857 66.8022 48.0078C66.8022 45.3566 68.809 41.4142 75.6893 35.7517L75.6916 35.754Z" fill="#121212"/>
</svg>
