<svg width="53" height="42" viewBox="0 0 53 42" fill="none" xmlns="http://www.w3.org/2000/svg">
<path d="M49.6317 1.51229L51.0066 3.62625C44.2556 9.25735 42.1183 13.3143 42.1183 16.2081C42.1183 17.3578 42.4197 18.126 42.9752 18.6577C43.4743 19.1354 44.1347 19.3685 44.7093 19.5713C44.7348 19.5803 44.7602 19.5893 44.7854 19.5982C49.0505 21.1375 52.191 25.2627 52.191 30.0759C52.191 35.8099 47.5708 41.253 41.0862 41.253C35.9908 41.253 29.8367 37.4198 29.8367 29.2001C29.8367 24.9221 31.6424 20.1323 35.0894 15.2955C38.4581 10.5685 43.3753 5.82463 49.6317 1.51229ZM0.863281 29.2001C0.863281 20.713 7.83705 10.2506 20.6569 1.5101L22.0313 3.62336C15.068 9.25843 13.0001 13.313 13.0001 16.2081C13.0001 17.3673 13.3253 18.1363 13.9008 18.6648C14.4061 19.1288 15.0663 19.3612 15.6328 19.5605C15.6679 19.5729 15.7027 19.5851 15.737 19.5973C19.8507 21.134 22.9257 25.2558 22.9257 30.0759C22.9257 35.8165 18.374 41.253 11.9681 41.253C6.88043 41.253 0.863281 37.427 0.863281 29.2001Z" stroke="#555555"/>
</svg>
